<?xml version="1.0" standalone="no"?>
<!DOCTYPE svg PUBLIC "-//W3C//DTD SVG 20010904//EN"
 "http://www.w3.org/TR/2001/REC-SVG-20010904/DTD/svg10.dtd">
<svg version="1.0" xmlns="http://www.w3.org/2000/svg"
 width="1081.000000pt" height="1115.000000pt" viewBox="0 0 1081.000000 1115.000000"
 preserveAspectRatio="xMidYMid meet">

<g transform="translate(0.000000,1115.000000) scale(0.100000,-0.100000)"
fill="#000000" stroke="none">
<path d="M2190 5340 c0 -4134 1 -4351 18 -4358 9 -4 778 -7 1707 -7 1320 0
1722 3 1835 13 463 42 943 183 1385 407 573 289 1100 760 1459 1305 158 239
313 534 409 775 74 188 173 539 211 745 57 309 66 463 66 1117 0 574 -6 756
-35 986 -58 451 -228 956 -471 1392 -339 609 -830 1113 -1428 1464 -419 246
-863 400 -1391 483 -140 22 -146 22 -1952 25 l-1813 4 0 -4351z m3575 3940
c335 -30 640 -101 915 -212 359 -145 672 -333 955 -574 427 -364 715 -749 957
-1277 86 -187 113 -266 168 -487 104 -414 137 -684 127 -1030 -9 -305 -46
-552 -132 -885 -57 -220 -66 -244 -173 -470 -133 -281 -181 -372 -243 -455
-30 -41 -87 -122 -127 -180 -121 -178 -306 -380 -517 -564 -169 -148 -215
-183 -415 -317 -402 -269 -869 -449 -1346 -518 -231 -34 -472 -41 -1470 -41
-798 0 -954 3 -970 14 -19 14 -19 67 -20 2673 0 1462 2 2831 5 3043 l6 385
1125 0 c1034 0 1134 -1 1240 -18 191 -30 368 -80 533 -153 370 -161 570 -293
846 -559 283 -273 531 -688 662 -1110 30 -93 76 -326 95 -475 41 -331 -10
-787 -128 -1128 -165 -479 -453 -895 -834 -1202 -145 -117 -201 -155 -357
-244 -266 -152 -543 -249 -845 -298 -130 -20 -178 -22 -968 -27 -800 -6 -833
-7 -853 -25 -20 -18 -21 -29 -21 -175 0 -86 4 -162 9 -170 5 -8 31 -17 57 -22
72 -12 1541 -11 1654 1 296 31 746 163 1009 295 321 161 633 398 874 664 167
184 195 220 324 420 170 264 292 544 387 886 59 215 78 344 85 584 16 555 -25
806 -206 1270 -80 205 -153 353 -229 466 -33 47 -86 129 -119 180 -160 252
-530 606 -795 762 -52 31 -121 76 -155 101 -82 60 -276 153 -415 198 -63 20
-173 56 -245 79 -145 48 -310 80 -490 95 -145 12 -2614 19 -2632 7 -10 -7 -13
-707 -13 -3446 0 -3008 2 -3440 15 -3451 18 -15 2447 -15 2650 1 237 18 418
51 655 119 368 106 492 155 760 302 102 56 213 116 247 134 169 93 436 308
674 544 174 173 221 227 434 492 60 76 111 136 112 134 6 -6 -64 -191 -97
-256 -113 -225 -263 -463 -405 -645 -181 -232 -475 -527 -641 -645 -308 -218
-428 -287 -742 -429 -197 -89 -469 -173 -662 -207 -293 -50 -192 -47 -1880
-53 -872 -3 -1590 -5 -1596 -3 -7 2 -13 76 -18 220 -7 233 -6 7218 1 7515 l5
177 1531 0 c942 0 1574 -4 1642 -10z"/>
<path d="M5685 7086 c-32 -32 -37 -77 -33 -302 3 -174 5 -194 22 -213 29 -32
92 -26 120 12 19 26 21 44 24 205 4 216 -1 256 -38 294 -35 34 -63 36 -95 4z"/>
<path d="M4787 6670 c-40 -32 -35 -67 17 -137 59 -78 245 -259 280 -273 53
-20 117 36 103 91 -8 31 -191 225 -266 284 -74 56 -99 63 -134 35z"/>
<path d="M6432 6527 c-139 -139 -162 -167 -162 -193 0 -35 22 -59 62 -69 52
-13 92 12 205 128 117 121 173 197 173 234 0 35 -34 63 -78 63 -35 0 -47 -10
-200 -163z"/>
<path d="M5687 6212 c-82 -257 -208 -386 -455 -467 -46 -15 -81 -32 -79 -38 2
-6 39 -25 83 -42 208 -82 283 -140 374 -288 43 -69 57 -105 102 -256 7 -25 18
-46 24 -48 6 -2 20 35 33 89 34 141 87 232 197 338 100 97 188 147 303 174 66
15 91 29 73 40 -6 3 -50 18 -98 32 -128 37 -196 77 -295 174 -100 98 -134 158
-177 307 -15 53 -32 98 -37 100 -6 1 -27 -50 -48 -115z"/>
<path d="M4440 5783 c-40 -13 -60 -28 -68 -53 -13 -36 9 -87 43 -100 15 -6
111 -10 215 -10 149 0 198 3 229 16 44 17 67 58 57 99 -12 47 -53 55 -268 54
-106 0 -200 -3 -208 -6z"/>
<path d="M6601 5782 c-13 -4 -33 -19 -44 -34 -17 -23 -18 -30 -7 -62 21 -64
29 -66 273 -66 137 0 226 4 239 11 11 6 26 26 34 45 13 30 13 38 0 63 -9 16
-23 32 -33 37 -23 10 -430 15 -462 6z"/>
<path d="M4921 4993 c-149 -146 -162 -161 -161 -193 0 -82 53 -101 134 -49 62
39 265 246 273 278 8 34 -35 115 -63 119 -15 2 -63 -39 -183 -155z"/>
<path d="M6300 5105 c-10 -12 -10 -25 1 -63 11 -40 33 -67 148 -184 82 -82
147 -139 163 -143 60 -15 121 49 98 104 -15 38 -236 255 -285 280 -47 25 -107
27 -125 6z"/>
<path d="M5694 4856 c-41 -29 -45 -61 -42 -293 3 -201 5 -223 22 -242 28 -31
86 -28 117 5 23 25 24 30 27 217 4 212 -1 266 -26 297 -23 27 -71 35 -98 16z"/>
</g>
</svg>
